<svg xmlns="http://www.w3.org/2000/svg" xmlns:xlink="http://www.w3.org/1999/xlink" width="147.362" height="88.62" viewBox="0 0 147.362 88.62"><defs><clipPath id="a"><rect width="147.362" height="88.619" fill="none" stroke="#e49fc6" stroke-width="2"/></clipPath></defs><g clip-path="url(#a)"><path d="M2.6-1A3.6,3.6,0,1,1-1,2.6,3.6,3.6,0,0,1,2.6-1Zm0,5.192A1.6,1.6,0,1,0,1,2.6,1.6,1.6,0,0,0,2.6,4.191Z" transform="matrix(0.23, -0.973, 0.973, 0.23, 70.497, 31.037)" fill="#e49fc6"/><path d="M284.081,73.395q-1.611,0-3.425-.181a59.582,59.582,0,0,1-13.163-3.051,72.24,72.24,0,0,1-12.949-5.921,38.762,38.762,0,0,1-9.719-7.722,1,1,0,1,1,1.523-1.3c4.109,4.828,12.461,9.828,21.8,13.048a57.569,57.569,0,0,0,12.709,2.952c4,.4,7.268.083,9.46-.913,9.015-4.1,8.259-13.738,7.808-19.5q-.02-.259-.039-.507a16.554,16.554,0,0,1,2.12-9.5c1.8-3.342,4.814-6.962,9.473-11.394,2.982-2.837,4.356-5.461,4.083-7.8a6.076,6.076,0,0,0-2.713-4.119c-13.95-5.434-29.114-1.976-45.073,10.277A108.869,108.869,0,0,0,251.394,41.45c-3.448,3.872-5.426,6.626-5.446,6.653a1,1,0,0,1-1.626-1.164c.082-.115,2.061-2.868,5.579-6.819a110.9,110.9,0,0,1,14.855-13.932,65.915,65.915,0,0,1,21.524-11.432,38.967,38.967,0,0,1,25.58.911l.072.028.067.039a8.132,8.132,0,0,1,3.748,5.65c.35,3-1.229,6.187-4.691,9.481-9.669,9.2-11.369,14.2-10.978,19.287q.019.246.039.5c.237,3.023.562,7.163-.427,11.149a15.628,15.628,0,0,1-2.719,5.809,15.092,15.092,0,0,1-5.828,4.516A17.166,17.166,0,0,1,284.081,73.395Z" transform="translate(-167.904 -9.611)" fill="#e49fc6"/><path d="M263.905,100.9a15.746,15.746,0,0,1-2.124-.14c-3.132-.427-6.772-3.687-9.134-6.6a26.323,26.323,0,0,1-3.48-5.5,12.687,12.687,0,0,1-1.342-5.633,37.278,37.278,0,0,0-2.193-12.475,1,1,0,1,1,1.87-.709A38.742,38.742,0,0,1,249.824,83.1c-.094,2.646,1.541,6.31,4.376,9.8a23.986,23.986,0,0,0,4.142,4.058,8.731,8.731,0,0,0,3.709,1.817,16.428,16.428,0,0,0,7.351-.828,10.915,10.915,0,0,0,5.458-3.713,23.632,23.632,0,0,0,2.127-4.263c1.122-2.671,2.394-5.7,5.276-8.124,1.494-1.258,2.667-2.15,3.523-2.8,1.587-1.207,1.961-1.53,1.993-1.929a2.276,2.276,0,0,0-.943-1.842l-1.363-.658,1.14-1a37.888,37.888,0,0,0,4.961-5.573c2.243-3.07,4.952-7.8,5.118-12.892.335-10.277,0-11.434-1.091-15.267-.157-.551-.364-1.174-.582-1.833a29.191,29.191,0,0,1-1.679-7.2,12.739,12.739,0,0,1,2.292-8.516,14.413,14.413,0,0,1,7.426-5.54,12.36,12.36,0,0,1,4.054-.639,1,1,0,0,1-.107,2,10.653,10.653,0,0,0-3.417.572,12.306,12.306,0,0,0-6.32,4.76c-3.379,4.8-1.628,10.083-.35,13.94.225.68.438,1.322.607,1.913,1.131,3.958,1.512,5.291,1.167,15.882a21.228,21.228,0,0,1-1.853,7.744,33.026,33.026,0,0,1-3.677,6.3,41.567,41.567,0,0,1-4.4,5.082,4.157,4.157,0,0,1,1.011,2.927c-.106,1.332-1,2.01-2.775,3.363-.84.639-1.99,1.514-3.446,2.74-2.513,2.116-3.635,4.786-4.72,7.369a25.472,25.472,0,0,1-2.323,4.621,12.887,12.887,0,0,1-6.448,4.469A18.924,18.924,0,0,1,263.905,100.9Z" transform="translate(-168.885 -11.748)" fill="#e49fc6"/><path d="M243.7,24.815a1,1,0,0,1-.955-1.3,44.339,44.339,0,0,1,4.084-8.727,37.508,37.508,0,0,1,5.452-7.1,25,25,0,0,1,8.125-5.59c6.562-2.715,13.931-1.971,21.9,2.209a1,1,0,0,1-.929,1.771c-7.419-3.89-14.216-4.609-20.2-2.136C255.166,6.429,251,11.75,248.571,15.776a43.2,43.2,0,0,0-3.915,8.338A1,1,0,0,1,243.7,24.815Z" transform="translate(-166.922 -1.028)" fill="#e49fc6"/><path d="M234.03,153.991a1,1,0,0,1-.9-1.425c3.433-7.317,4.63-18.566,3.464-32.531a151.232,151.232,0,0,0-2.856-19.184,1,1,0,0,1,1.948-.452,153.526,153.526,0,0,1,2.9,19.469,106.866,106.866,0,0,1,.17,17.307,47.6,47.6,0,0,1-3.816,16.239A1,1,0,0,1,234.03,153.991Z" transform="translate(-160.298 -68.923)" fill="#e49fc6"/><path d="M32.213,73.395a17.163,17.163,0,0,1-7.062-1.264,15.092,15.092,0,0,1-5.828-4.516A15.628,15.628,0,0,1,16.6,61.806c-.988-3.986-.664-8.126-.427-11.149q.02-.257.039-.5c.391-5.088-1.308-10.089-10.978-19.287C1.776,27.572.2,24.382.547,21.385A8.132,8.132,0,0,1,4.3,15.735l.067-.039.072-.028a38.967,38.967,0,0,1,25.58-.911A65.916,65.916,0,0,1,51.538,26.188,110.9,110.9,0,0,1,66.393,40.12c3.518,3.951,5.5,6.7,5.579,6.819A1,1,0,1,1,70.345,48.1c-.025-.035-2.022-2.811-5.478-6.689A108.8,108.8,0,0,0,50.283,27.746C34.338,15.517,19.188,12.068,5.249,17.5a6.145,6.145,0,0,0-2.718,4.14c-.263,2.334,1.112,4.952,4.085,7.781,4.659,4.432,7.669,8.052,9.473,11.394a16.554,16.554,0,0,1,2.12,9.5q-.019.248-.039.506c-.452,5.76-1.207,15.4,7.808,19.5,2.192,1,5.464,1.312,9.46.913a57.569,57.569,0,0,0,12.709-2.952c9.336-3.22,17.688-8.22,21.8-13.048a1,1,0,0,1,1.523,1.3,38.762,38.762,0,0,1-9.719,7.722A72.239,72.239,0,0,1,48.8,70.163a59.582,59.582,0,0,1-13.163,3.051Q33.825,73.395,32.213,73.395Z" transform="translate(-1.028 -9.611)" fill="#e49fc6"/><path d="M72.318,100.9a18.922,18.922,0,0,1-6.155-1.061,12.887,12.887,0,0,1-6.448-4.469,25.467,25.467,0,0,1-2.323-4.622c-1.085-2.582-2.207-5.253-4.72-7.369-1.456-1.226-2.606-2.1-3.446-2.74-1.777-1.352-2.669-2.031-2.775-3.362a4.157,4.157,0,0,1,1.011-2.927,41.567,41.567,0,0,1-4.4-5.082,33.024,33.024,0,0,1-3.677-6.3,21.228,21.228,0,0,1-1.853-7.744c-.345-10.59.036-11.924,1.166-15.881.169-.591.382-1.233.607-1.913,1.278-3.856,3.028-9.138-.35-13.94a12.038,12.038,0,0,0-9.737-5.332,1,1,0,0,1-.107-2,12.361,12.361,0,0,1,4.054.639,14.413,14.413,0,0,1,7.426,5.54,12.739,12.739,0,0,1,2.292,8.516,29.192,29.192,0,0,1-1.679,7.2c-.219.659-.425,1.282-.582,1.833-1.1,3.833-1.425,4.99-1.091,15.267.167,5.108,2.89,9.85,5.144,12.928A37.668,37.668,0,0,0,49.61,73.62l1.14,1-1.363.658a2.276,2.276,0,0,0-.943,1.842c.032.4.406.722,1.993,1.929.856.652,2.029,1.544,3.523,2.8,2.881,2.426,4.153,5.453,5.275,8.124a23.628,23.628,0,0,0,2.127,4.263,10.915,10.915,0,0,0,5.458,3.713,16.428,16.428,0,0,0,7.351.828,8.732,8.732,0,0,0,3.709-1.817A23.986,23.986,0,0,0,82.023,92.9c2.834-3.491,4.47-7.155,4.376-9.8a38.742,38.742,0,0,1,2.321-13.256,1,1,0,0,1,1.87.709h0A37.378,37.378,0,0,0,88.4,83.028a12.686,12.686,0,0,1-1.342,5.633,26.322,26.322,0,0,1-3.48,5.5c-2.362,2.908-6,6.169-9.133,6.6A15.751,15.751,0,0,1,72.318,100.9Z" transform="translate(-19.976 -11.748)" fill="#e49fc6"/><path d="M141.1,24.815a1,1,0,0,1-.954-.7h0a43.2,43.2,0,0,0-3.915-8.338c-2.432-4.026-6.594-9.347-12.61-11.832-5.986-2.473-12.782-1.754-20.2,2.136a1,1,0,1,1-.929-1.771c7.972-4.181,15.342-4.924,21.9-2.209a25,25,0,0,1,8.125,5.59,37.508,37.508,0,0,1,5.452,7.1,44.338,44.338,0,0,1,4.084,8.727,1,1,0,0,1-.955,1.3Z" transform="translate(-70.518 -1.028)" fill="#e49fc6"/><path d="M225.016,153.991a1,1,0,0,1-.906-.576,47.6,47.6,0,0,1-3.816-16.239,106.868,106.868,0,0,1,.17-17.307,153.516,153.516,0,0,1,2.9-19.469,1,1,0,0,1,1.948.452,151.43,151.43,0,0,0-2.858,19.211c-1.163,13.952.036,25.191,3.466,32.5a1,1,0,0,1-.9,1.425Z" transform="translate(-151.386 -68.923)" fill="#e49fc6"/></g></svg>