<svg xmlns="http://www.w3.org/2000/svg" xmlns:xlink="http://www.w3.org/1999/xlink" width="104" height="95.402" viewBox="0 0 104 95.402"><defs><clipPath id="a"><rect width="104" height="95.402" fill="none" stroke="#e49fc6" stroke-width="2"/></clipPath></defs><g clip-path="url(#a)"><path d="M248.317,149.652l-.382-.162a30.227,30.227,0,0,1-16-15.413,41.69,41.69,0,0,1-3.694-15.719,26.647,26.647,0,0,1,.666-7.081,55.765,55.765,0,0,1,12.273-24.621A56.379,56.379,0,0,1,258.782,73.32a69.107,69.107,0,0,1,15.758-5.465,50.452,50.452,0,0,1,6.885-1.065l.618-.038.309.537a26.637,26.637,0,0,1,2.439,6.62A30.3,30.3,0,0,1,285.617,81a28.459,28.459,0,0,1-1.376,8.653,33.267,33.267,0,0,1-8.3,13.159c-4.519,4.553-10.64,8.631-18.2,12.128a40.994,40.994,0,0,1,2.643,16.2,23.154,23.154,0,0,1-3.422,10.95A19.469,19.469,0,0,1,248.7,149.5Zm32.589-80.81a54.98,54.98,0,0,0-6.014.983,67.062,67.062,0,0,0-15.29,5.321C244.367,82.689,234.694,95,230.851,111.725a24.647,24.647,0,0,0-.617,6.549c.275,6.537,2.592,22.381,18.077,29.2a15.488,15.488,0,0,0,2.182-1.341,18.8,18.8,0,0,0,4.839-5.208c3.931-6.3,4.124-14.992.571-25.183-6.29,2.443-14.054,2.007-19.589,1.174l.3-1.978c5.565.838,13.46,1.269,19.466-1.437,14.24-6.415,23.071-14.635,26.249-24.431a27.864,27.864,0,0,0-1.421-20.229Z" transform="translate(-180.933 -53.509)" fill="#e49fc6"/><path d="M37.809,145.466l-.378-.146a19.011,19.011,0,0,1-8.273-7.234,22.616,22.616,0,0,1-3.427-10.837A40.832,40.832,0,0,1,28.375,111.1c-7.523-3.48-13.619-7.546-18.131-12.1A33.541,33.541,0,0,1,1.92,85.829,28.911,28.911,0,0,1,.5,77.054a30.884,30.884,0,0,1,.814-7.205,27.192,27.192,0,0,1,2.447-6.737l.315-.554.635.051a51.387,51.387,0,0,1,7.016,1.232,70.472,70.472,0,0,1,16,5.926A57.672,57.672,0,0,1,45.459,83.807,57.338,57.338,0,0,1,57.51,109.323a19.563,19.563,0,0,1,.408,4.062,40.688,40.688,0,0,1-3.125,15.462,30.524,30.524,0,0,1-16.611,16.462Zm-7.6-33.559c-3.57,10.237-3.358,18.9.627,25.1A17.6,17.6,0,0,0,37.8,143.3c16.264-7.141,18.095-23.275,18.122-29.92a17.559,17.559,0,0,0-.366-3.646c-3.6-17.29-13.273-30.139-28.747-38.19a68.441,68.441,0,0,0-15.538-5.754,55.761,55.761,0,0,0-6.059-1.114A28.435,28.435,0,0,0,3.832,85.24c3.215,9.822,12.032,18.039,26.206,24.425,5.964,2.687,13.788,2.453,19.3,1.784l.241,1.985C44.111,114.1,36.437,114.34,30.213,111.907Z" transform="translate(-1.184 -50.208)" fill="#e49fc6"/><path d="M247.423,37.133a1,1,0,0,1-1-.972A29.316,29.316,0,0,1,251.3,18.805a38.729,38.729,0,0,1,11.4-10.929,59.425,59.425,0,0,1,11.456-5.69,48.074,48.074,0,0,1,5.264-1.66,1,1,0,1,1,.454,1.948,57.469,57.469,0,0,0-16.132,7.11C253.273,16.4,248.116,25.322,248.423,36.1a1,1,0,0,1-.971,1.028Z" transform="translate(-195.297 -1.184)" fill="#e49fc6"/><path d="M127.589,37.133h-.029a1,1,0,0,1-.971-1.028c.307-10.8-4.865-19.731-15.372-26.55a57.32,57.32,0,0,0-16.086-7.08A1,1,0,0,1,95.585.526a48.072,48.072,0,0,1,5.264,1.66,59.425,59.425,0,0,1,11.456,5.69,38.729,38.729,0,0,1,11.4,10.929,29.317,29.317,0,0,1,4.878,17.356A1,1,0,0,1,127.589,37.133Z" transform="translate(-75.272 -1.184)" fill="#e49fc6"/></g></svg>