<svg xmlns="http://www.w3.org/2000/svg" xmlns:xlink="http://www.w3.org/1999/xlink" width="77.568" height="104.639" viewBox="0 0 77.568 104.639"><defs><clipPath id="a"><rect width="77.568" height="104.639" fill="none" stroke="#e49fc6" stroke-width="2"/></clipPath></defs><g clip-path="url(#a)"><path d="M35.234,106.911l-.718-.594c-.1-.085-2.553-2.147-5.212-7.432a54.442,54.442,0,0,1-3.876-10.491,89.194,89.194,0,0,1-2.59-16.229,1,1,0,0,1,.648-1.01L18.8,68.58l2.161.345A69.729,69.729,0,0,1,9.14,53.177,71.1,71.1,0,0,1,2.725,37.049,69.337,69.337,0,0,1,.661,25.033C.54,23.49.507,22.282.5,21.54a7.671,7.671,0,0,1,.045-1.483l.239-.978.977.245c.225.057,5.6,1.469,12.669,8.631A73.135,73.135,0,0,1,25.87,43.583,130.916,130.916,0,0,1,35.911,67.1a59.712,59.712,0,0,1-.018-26.282A59.731,59.731,0,0,1,46.305,18.7,73.765,73.765,0,0,1,59.171,5.386,54.689,54.689,0,0,1,65.512.9l.541-.31.517.35a29.034,29.034,0,0,1,5.526,5.3,32.993,32.993,0,0,1,4.185,6.519,30.882,30.882,0,0,1,2.787,9.077A35.841,35.841,0,0,1,77.322,38.4C75.067,45.133,70.93,52.18,65.029,59.342a28.372,28.372,0,0,1-7.777,6.331,51.436,51.436,0,0,1-8.822,3.959,68.515,68.515,0,0,1-9.018,2.455l.088.189c9.673,2.1,17.432,4.469,23.165,7.087,6.491,2.965,10.4,6.254,11.626,9.774a6.679,6.679,0,0,1-1.121,6.575l-.274.3-.4.023a32.457,32.457,0,0,1-16.36-3.2,36.477,36.477,0,0,1-10.976-8.445,46.892,46.892,0,0,1-7.04-10.362l-.3-.063A102.056,102.056,0,0,1,39.6,85.3a52.956,52.956,0,0,1,0,11.582c-.541,4.182-1.794,7.33-3.725,9.357Zm-10.439-35.1a1,1,0,0,1,.037.208c.948,12.974,3.883,21.2,6.179,25.809a27.559,27.559,0,0,0,4.076,6.238c2.487-3.4,3.358-9.78,2.521-18.58A100.687,100.687,0,0,0,35.676,73.52q-1.4-.281-2.85-.555A19.323,19.323,0,0,1,24.795,71.811Zm15.876,2.77A45.016,45.016,0,0,0,46.685,83.1c6.976,7.712,15.464,11.4,25.236,10.965a4.752,4.752,0,0,0,.465-4.31A9.826,9.826,0,0,0,69.5,85.857a31.453,31.453,0,0,0-7.733-4.706A111.292,111.292,0,0,0,40.671,74.581ZM24.655,69.514q4.323.692,8.288,1.438c.73-.034,1.416-.094,2.031-.162-6.937-22.767-15.672-35-21.815-41.276a38.729,38.729,0,0,0-8.494-6.728A21.64,21.64,0,0,0,2.5,21.714a63.651,63.651,0,0,0,2.23,15.107,68.449,68.449,0,0,0,18.98,31.99A5.113,5.113,0,0,0,24.655,69.514ZM65.955,2.97a59.328,59.328,0,0,0-5.588,4.021,71.715,71.715,0,0,0-12.5,12.958c-11.054,14.935-14.131,31.83-9.152,50.234a66.894,66.894,0,0,0,9.092-2.452c4.938-1.72,11.666-4.792,15.678-9.66C74.1,45.195,78.672,33.1,77.088,22.115A29.91,29.91,0,0,0,70.549,7.5,29.448,29.448,0,0,0,65.955,2.97Z" transform="translate(-1.161 -1.369)" fill="#e49fc6"/><path d="M294.787,66.15A1,1,0,0,1,294,64.537c2.454-3.162,3.475-8.988,3.8-11.347a5.878,5.878,0,0,0-.093-2.121,29.925,29.925,0,0,1,.856-16.359,29.8,29.8,0,0,0,1.589-6.05c.246-2.945-3.027-10.011-4.308-12.485a1,1,0,0,1,1.776-.92c.049.095,1.218,2.358,2.366,5.138,1.58,3.828,2.307,6.665,2.159,8.433a30.964,30.964,0,0,1-1.689,6.531,27.926,27.926,0,0,0-.8,15.267,7.871,7.871,0,0,1,.124,2.84c-.431,3.127-1.55,8.884-4.2,12.3A1,1,0,0,1,294.787,66.15Z" transform="translate(-228.309 -12.17)" fill="#e49fc6"/><path d="M13.155,135.488a1,1,0,0,1-.819-.426c-.815-1.161-1.346-3.221-1.58-6.124-.141-1.755-.13-3.275-.122-3.753L8.428,117.2a27.583,27.583,0,0,0-3.053-5.505c-1.68-2.016-4.5-9.764-4.816-10.641a1,1,0,0,1,1.882-.678c.826,2.291,3.239,8.56,4.471,10.039a29.584,29.584,0,0,1,3.386,6.072l.024.058,2.318,8.4,0,.15c-.051,1.852.089,7.047,1.336,8.825a1,1,0,0,1-.818,1.575Z" transform="translate(-1.162 -77.999)" fill="#e49fc6"/></g></svg>